<mxfile host="app.diagrams.net" modified="2021-03-14T15:13:09.353Z" agent="5.0 (Macintosh; Intel Mac OS X 10_15_6) AppleWebKit/605.1.15 (KHTML, like Gecko) Version/14.0.3 Safari/605.1.15" etag="4r_BIcNJNOHNRkxH-HMp" version="14.4.8" type="github">
  <diagram id="ucvFiVCwpmbeMMillvRG" name="第 1 页">
    <mxGraphModel dx="937" dy="541" grid="1" gridSize="10" guides="1" tooltips="1" connect="1" arrows="1" fold="1" page="1" pageScale="1" pageWidth="827" pageHeight="1169" math="0" shadow="0">
      <root>
        <mxCell id="0" />
        <mxCell id="1" parent="0" />
        <mxCell id="W8613wsFYHt2JdZHEvud-28" value="" style="rounded=0;whiteSpace=wrap;html=1;fontSize=16;fillColor=#f9f7ed;strokeColor=none;" vertex="1" parent="1">
          <mxGeometry x="390" y="80" width="380" height="270" as="geometry" />
        </mxCell>
        <mxCell id="W8613wsFYHt2JdZHEvud-21" style="rounded=0;orthogonalLoop=1;jettySize=auto;html=1;entryX=0;entryY=0.5;entryDx=0;entryDy=0;startArrow=none;startFill=0;fontSize=16;endArrow=classic;endFill=1;exitX=1;exitY=0.5;exitDx=0;exitDy=0;" edge="1" parent="1" source="W8613wsFYHt2JdZHEvud-1" target="W8613wsFYHt2JdZHEvud-18">
          <mxGeometry relative="1" as="geometry" />
        </mxCell>
        <mxCell id="W8613wsFYHt2JdZHEvud-1" value="客户端1" style="rounded=0;whiteSpace=wrap;html=1;fontSize=16;fillColor=#cce5ff;strokeColor=#36393d;" vertex="1" parent="1">
          <mxGeometry x="200" y="120" width="120" height="60" as="geometry" />
        </mxCell>
        <mxCell id="W8613wsFYHt2JdZHEvud-25" value="fork()" style="edgeStyle=none;rounded=0;orthogonalLoop=1;jettySize=auto;html=1;entryX=0;entryY=0.5;entryDx=0;entryDy=0;startArrow=none;startFill=0;endArrow=classic;endFill=1;fontSize=16;exitX=1;exitY=0.5;exitDx=0;exitDy=0;" edge="1" parent="1" source="W8613wsFYHt2JdZHEvud-18" target="W8613wsFYHt2JdZHEvud-23">
          <mxGeometry relative="1" as="geometry" />
        </mxCell>
        <mxCell id="W8613wsFYHt2JdZHEvud-26" value="fork()" style="edgeStyle=none;rounded=0;orthogonalLoop=1;jettySize=auto;html=1;entryX=0;entryY=0.5;entryDx=0;entryDy=0;startArrow=none;startFill=0;endArrow=classic;endFill=1;fontSize=16;exitX=1;exitY=0.65;exitDx=0;exitDy=0;exitPerimeter=0;" edge="1" parent="1" source="W8613wsFYHt2JdZHEvud-18" target="W8613wsFYHt2JdZHEvud-24">
          <mxGeometry relative="1" as="geometry" />
        </mxCell>
        <mxCell id="W8613wsFYHt2JdZHEvud-18" value="父进程&lt;br&gt;accept()" style="rounded=0;whiteSpace=wrap;html=1;fontSize=16;fillColor=#fad7ac;strokeColor=#b46504;" vertex="1" parent="1">
          <mxGeometry x="414" y="180" width="120" height="60" as="geometry" />
        </mxCell>
        <mxCell id="W8613wsFYHt2JdZHEvud-22" style="edgeStyle=none;rounded=0;orthogonalLoop=1;jettySize=auto;html=1;entryX=0;entryY=0.617;entryDx=0;entryDy=0;entryPerimeter=0;startArrow=none;startFill=0;endArrow=classic;endFill=1;fontSize=16;" edge="1" parent="1" source="W8613wsFYHt2JdZHEvud-19" target="W8613wsFYHt2JdZHEvud-18">
          <mxGeometry relative="1" as="geometry" />
        </mxCell>
        <mxCell id="W8613wsFYHt2JdZHEvud-19" value="客户端2" style="rounded=0;whiteSpace=wrap;html=1;fontSize=16;fillColor=#cdeb8b;strokeColor=#36393d;" vertex="1" parent="1">
          <mxGeometry x="200" y="240" width="120" height="60" as="geometry" />
        </mxCell>
        <mxCell id="W8613wsFYHt2JdZHEvud-23" value="子进程&lt;br&gt;read()&lt;br&gt;write()" style="rounded=0;whiteSpace=wrap;html=1;fontSize=16;fillColor=#cce5ff;strokeColor=#36393d;" vertex="1" parent="1">
          <mxGeometry x="640" y="120" width="120" height="60" as="geometry" />
        </mxCell>
        <mxCell id="W8613wsFYHt2JdZHEvud-24" value="子进程&lt;br&gt;read()&lt;br&gt;write()" style="rounded=0;whiteSpace=wrap;html=1;fontSize=16;fillColor=#cdeb8b;strokeColor=#36393d;" vertex="1" parent="1">
          <mxGeometry x="640" y="240" width="120" height="60" as="geometry" />
        </mxCell>
        <mxCell id="W8613wsFYHt2JdZHEvud-29" value="服务器" style="text;html=1;align=center;verticalAlign=middle;resizable=0;points=[];autosize=1;fontSize=16;" vertex="1" parent="1">
          <mxGeometry x="550" y="90" width="60" height="20" as="geometry" />
        </mxCell>
      </root>
    </mxGraphModel>
  </diagram>
</mxfile>
